<svg xmlns="http://www.w3.org/2000/svg" viewBox="0 0 400 400"><path d="M0 0,h400,v400,h-400,z" fill="#ffffff"/><circle cx="200" cy="200" r="150" fill="#FF99B7"/><path d="M75 75,h50,v50,h-50,v-50,M125 75,h50,v50,h-50,v-50,M275 75,h50,v50,h-50,v-50,M75 125,h50,v50,h-50,v-50,M175 125,h50,v50,h-50,v-50,M225 125,h50,v50,h-50,v-50,M275 125,h50,v50,h-50,v-50,M75 175,h50,v50,h-50,v-50,M125 175,h50,v50,h-50,v-50,M175 175,h50,v50,h-50,v-50,M275 175,h50,v50,h-50,v-50,M75 225,h50,v50,h-50,v-50,M125 225,h50,v50,h-50,v-50,M175 225,h50,v50,h-50,v-50,M225 225,h50,v50,h-50,v-50,M75 275,h50,v50,h-50,v-50,M125 275,h50,v50,h-50,v-50,M175 275,h50,v50,h-50,v-50,M225 275,h50,v50,h-50,v-50,M275 275,h50,v50,h-50,v-50" fill="#111827" shape-rendering="crispEdges"/></svg>
